<svg width="274" height="118" viewBox="0 0 274 118" fill="none" xmlns="http://www.w3.org/2000/svg">
<path d="M94.7617 52.0093L11.7695 10.8647C9.25781 9.59912 6.25781 9.73584 3.86328 11.189C1.45313 12.6343 0 15.2163 0 17.9858V100.302C0 103.068 1.45313 105.642 3.86328 107.095C5.16016 107.88 6.63281 108.283 8.12109 108.283C9.375 108.283 10.6211 107.994 11.7773 107.419L94.7656 66.2632C97.5 64.9038 99.2344 62.1577 99.2344 59.1343C99.2344 56.1069 97.4922 53.3686 94.7617 52.0093Z" fill="white"/>
<path d="M38.4453 62.7983H25.5117C25.0937 62.7983 24.7578 63.1343 24.7578 63.5522V76.4858C24.7578 76.9038 25.0937 77.2397 25.5117 77.2397H38.4453C38.8633 77.2397 39.1992 76.9038 39.1992 76.4858V63.5522C39.1992 63.1343 38.8633 62.7983 38.4453 62.7983Z" fill="#2B9F3F"/>
<path d="M55.7969 62.7983H42.8594C42.4414 62.7983 42.1055 63.1343 42.1055 63.5522V76.4858C42.1055 76.9038 42.4414 77.2397 42.8594 77.2397H55.7969C56.2109 77.2397 56.5469 76.9038 56.5469 76.4858V63.5522C56.5469 63.1343 56.2109 62.7983 55.7969 62.7983Z" fill="#2B9F3F"/>
<path d="M38.4453 45.3765H25.5117C25.0937 45.3765 24.7578 45.7124 24.7578 46.1304V59.064C24.7578 59.4819 25.0937 59.8179 25.5117 59.8179H38.4453C38.8633 59.8179 39.1992 59.4819 39.1992 59.064V46.1304C39.1992 45.7124 38.8633 45.3765 38.4453 45.3765Z" fill="#2B9F3F"/>
<path d="M55.7969 45.3765H42.8594C42.4414 45.3765 42.1055 45.7124 42.1055 46.1304V59.064C42.1055 59.4819 42.4414 59.8179 42.8594 59.8179H55.7969C56.2109 59.8179 56.5469 59.4819 56.5469 59.064V46.1304C56.5469 45.7124 56.2109 45.3765 55.7969 45.3765Z" fill="#2B9F3F"/>
<path d="M72.8125 45.3765H59.8789C59.4609 45.3765 59.125 45.7124 59.125 46.1304V59.064C59.125 59.4819 59.4609 59.8179 59.8789 59.8179H72.8125C73.2305 59.8179 73.5664 59.4819 73.5664 59.064V46.1304C73.5664 45.7124 73.2305 45.3765 72.8125 45.3765Z" fill="#2B9F3F"/>
<path d="M55.7969 28.4272H42.8594C42.4414 28.4272 42.1055 28.7632 42.1055 29.1772V42.1147C42.1055 42.5327 42.4414 42.8687 42.8594 42.8687H55.7969C56.2109 42.8687 56.5469 42.5327 56.5469 42.1147V29.1772C56.5469 28.7632 56.2109 28.4272 55.7969 28.4272Z" fill="#2B9F3F"/>
<path d="M38.4453 28.4272H25.5117C25.0937 28.4272 24.7578 28.7632 24.7578 29.1772V42.1147C24.7578 42.5327 25.0937 42.8687 25.5117 42.8687H38.4453C38.8633 42.8687 39.1992 42.5327 39.1992 42.1147V29.1772C39.1992 28.7632 38.8633 28.4272 38.4453 28.4272Z" fill="#2B9F3F"/>
<path d="M55.7969 11.3062H42.8594C42.4414 11.3062 42.1055 11.6421 42.1055 12.0601V24.9937C42.1055 25.4116 42.4414 25.7476 42.8594 25.7476H55.7969C56.2109 25.7476 56.5469 25.4116 56.5469 24.9937V12.0601C56.5469 11.6421 56.2109 11.3062 55.7969 11.3062Z" fill="#2B9F3F"/>
<path d="M72.8125 11.3062H59.8789C59.4609 11.3062 59.125 11.6421 59.125 12.0601V24.9937C59.125 25.4116 59.4609 25.7476 59.8789 25.7476H72.8125C73.2305 25.7476 73.5664 25.4116 73.5664 24.9937V12.0601C73.5664 11.6421 73.2305 11.3062 72.8125 11.3062Z" fill="#2B9F3F"/>
<path d="M31.9805 10.3335C31.457 10.3335 30.9414 10.3843 30.4297 10.4858C29.918 10.5874 29.4219 10.7397 28.9414 10.939C28.4609 11.1382 28 11.3804 27.5664 11.6733C27.1367 11.9624 26.7344 12.2905 26.3672 12.6577C25.9961 13.0288 25.668 13.4272 25.3789 13.8608C25.0898 14.2944 24.8437 14.7515 24.6445 15.2358C24.4453 15.7163 24.293 16.2124 24.1914 16.7241C24.0898 17.2358 24.0391 17.7515 24.0391 18.271C24.0391 18.7944 24.0898 19.3101 24.1914 19.8218C24.293 20.3335 24.4453 20.8296 24.6445 21.3101C24.8437 21.7905 25.0898 22.2476 25.3789 22.6812C25.668 23.1147 25.9961 23.5171 26.3672 23.8843C26.7344 24.2554 27.1367 24.5835 27.5664 24.8726C28 25.1616 28.4609 25.4077 28.9414 25.6069C29.4219 25.8062 29.918 25.9546 30.4297 26.0562C30.9414 26.1577 31.457 26.2085 31.9805 26.2085C32.5 26.2085 33.0156 26.1577 33.5273 26.0562C34.0391 25.9546 34.5352 25.8062 35.0156 25.6069C35.5 25.4077 35.957 25.1616 36.3906 24.8726C36.8242 24.5835 37.2227 24.2554 37.5938 23.8843C37.9609 23.5171 38.2891 23.1147 38.5781 22.6812C38.8672 22.2476 39.1133 21.7905 39.3125 21.3101C39.5117 20.8296 39.6641 20.3335 39.7656 19.8218C39.8672 19.3101 39.918 18.7944 39.918 18.271C39.918 17.7515 39.8672 17.2358 39.7656 16.7241C39.6641 16.2124 39.5117 15.7163 39.3125 15.2358C39.1133 14.7515 38.8672 14.2944 38.5781 13.8608C38.2891 13.4272 37.9609 13.0288 37.5938 12.6577C37.2227 12.2905 36.8242 11.9624 36.3906 11.6733C35.957 11.3804 35.5 11.1382 35.0156 10.939C34.5352 10.7397 34.0391 10.5874 33.5273 10.4858C33.0156 10.3843 32.5 10.3335 31.9805 10.3335Z" fill="#CE1218"/>
<path d="M130.84 91.64C126.787 91.48 123.24 90.44 120.2 88.52C117.213 86.6 114.92 83.96 113.32 80.6C111.72 77.24 110.92 73.4 110.92 69.08V44.76C110.92 37.6133 112.573 32.12 115.88 28.28C119.187 24.44 124.173 22.4133 130.84 22.2V32.68C128.92 33 127.533 33.7733 126.68 35C125.88 36.2267 125.48 38.0133 125.48 40.36V73.4C125.48 75.2667 125.96 76.8133 126.92 78.04C127.933 79.2667 129.24 80.0933 130.84 80.52V91.64ZM251.784 80.52C253.384 80.0933 254.664 79.2667 255.624 78.04C256.637 76.8133 257.144 75.2667 257.144 73.4V40.36C257.144 38.0133 256.717 36.2267 255.864 35C255.064 33.7733 253.704 33 251.784 32.68V22.2C258.45 22.4133 263.437 24.44 266.744 28.28C270.05 32.12 271.704 37.6133 271.704 44.76V69.08C271.704 73.4533 270.904 77.32 269.304 80.68C267.704 83.9867 265.384 86.6 262.344 88.52C259.357 90.44 255.837 91.48 251.784 91.64V80.52Z" fill="#FAC80A"/>
<path d="M130.121 22.28H148.281C153.775 22.28 157.695 24.0667 160.041 27.64C162.388 31.16 163.561 36.3333 163.561 43.16C163.561 49.9867 162.521 55.1333 160.441 58.6C158.361 62.0667 154.628 63.8 149.241 63.8H143.641V91H130.121V22.28ZM144.441 51.4C146.095 51.4 147.295 51.1067 148.041 50.52C148.841 49.88 149.348 49 149.561 47.88C149.828 46.7067 149.961 45.0533 149.961 42.92C149.961 40.04 149.641 37.96 149.001 36.68C148.361 35.4 147.081 34.76 145.161 34.76H143.641V51.4H144.441ZM162.656 91V22.28H176.416V79.32H190.576V91H162.656ZM187.413 91L194.053 22.28H217.333L223.893 91H210.853L209.893 79.88H201.573L200.773 91H187.413ZM202.613 68.92H208.853L205.813 33.96H205.173L202.613 68.92ZM231.201 91V68.36L220.241 22.28H233.841L237.681 45.56L241.521 22.28H255.121L244.161 68.36V91H231.201Z" fill="#45C7D4"/>
</svg>
