<svg width="114" height="124" viewBox="0 0 114 124" fill="none" xmlns="http://www.w3.org/2000/svg">
<path d="M14.7949 59.1476C16.6066 59.3694 18.2551 58.0806 18.477 56.2689C18.6988 54.4571 17.41 52.8086 15.5983 52.5868C13.7866 52.3649 12.138 53.6537 11.9162 55.4655C11.6943 57.2772 12.9832 58.9257 14.7949 59.1476Z" fill="#F2F2F2"/>
<path d="M104.872 98.4795L80.2689 95.4668L80.0681 97.107L104.671 100.12L104.872 98.4795Z" fill="#F2F2F2"/>
<path d="M18.611 27.9836L8.16681 113.274L88.5366 123.116L98.9808 37.8252L18.611 27.9836ZM58.0419 39.0613C57.4951 38.9943 56.98 38.7696 56.5618 38.4154C56.1437 38.0613 55.8412 37.5936 55.6927 37.0717C55.5442 36.5497 55.5563 35.9969 55.7276 35.483C55.8988 34.9692 56.2214 34.5175 56.6546 34.1849C57.0878 33.8524 57.6122 33.654 58.1614 33.6149C58.7105 33.5758 59.2599 33.6977 59.74 33.9651C60.22 34.2326 60.6092 34.6336 60.8584 35.1175C61.1075 35.6014 61.2054 36.1464 61.1396 36.6836C61.0514 37.404 60.6754 38.0592 60.0945 38.5051C59.5136 38.951 58.7753 39.1511 58.0419 39.0613Z" fill="#3D3E5A"/>
<path d="M67.8134 50.6567L26.0794 45.5462C25.741 45.5047 25.4271 45.3786 25.2067 45.1955C24.9863 45.0124 24.8775 44.7874 24.9041 44.5699C24.9307 44.3524 25.0907 44.1602 25.3488 44.0357C25.6068 43.9112 25.9419 43.8645 26.2802 43.906L68.0142 49.0165C68.3525 49.0579 68.6665 49.184 68.8869 49.3671C69.1073 49.5502 69.2161 49.7753 69.1895 49.9928C69.1629 50.2103 69.0029 50.4024 68.7448 50.5269C68.4868 50.6514 68.1517 50.6981 67.8134 50.6567Z" fill="#F2F2F2"/>
<path d="M66.2065 63.7782L24.4726 58.6678C24.1342 58.6263 23.8203 58.5002 23.5999 58.3171C23.3795 58.134 23.2706 57.9089 23.2973 57.6914C23.3239 57.4739 23.4839 57.2818 23.7419 57.1573C24 57.0328 24.3351 56.9861 24.6734 57.0276L66.4074 62.138C66.7457 62.1795 67.0596 62.3056 67.2801 62.4887C67.5005 62.6718 67.6093 62.8969 67.5827 63.1144C67.5561 63.3319 67.3961 63.524 67.138 63.6485C66.88 63.773 66.5449 63.8197 66.2065 63.7782Z" fill="#F2F2F2"/>
<path d="M64.5997 76.8998L22.8658 71.7893C22.5274 71.7479 22.2135 71.6218 21.9931 71.4387C21.7727 71.2556 21.6638 71.0305 21.6905 70.813C21.7171 70.5955 21.8771 70.4034 22.1351 70.2789C22.3932 70.1544 22.7283 70.1077 23.0666 70.1491L64.8006 75.2596C65.1389 75.3011 65.4528 75.4272 65.6732 75.6103C65.8936 75.7934 66.0025 76.0184 65.9759 76.2359C65.9492 76.4534 65.7893 76.6456 65.5312 76.7701C65.2731 76.8946 64.9381 76.9413 64.5997 76.8998Z" fill="#F2F2F2"/>
<path d="M62.9932 90.0219L21.2592 84.9114C20.9208 84.87 20.6069 84.7438 20.3865 84.5607C20.1661 84.3777 20.0573 84.1526 20.0839 83.9351C20.1105 83.7176 20.2705 83.5255 20.5286 83.401C20.7866 83.2764 21.1217 83.2298 21.46 83.2712L63.194 88.3817C63.5324 88.4231 63.8463 88.5493 64.0667 88.7324C64.2871 88.9155 64.3959 89.1405 64.3693 89.358C64.3427 89.5755 64.1827 89.7677 63.9247 89.8922C63.6666 90.0167 63.3315 90.0633 62.9932 90.0219Z" fill="#F2F2F2"/>
<path d="M61.3864 103.143L19.6524 98.033C19.314 97.9916 19.0001 97.8654 18.7797 97.6823C18.5593 97.4992 18.4505 97.2742 18.4771 97.0567C18.5037 96.8392 18.6637 96.647 18.9217 96.5225C19.1798 96.398 19.5149 96.3514 19.8532 96.3928L61.5872 101.503C61.9255 101.545 62.2395 101.671 62.4599 101.854C62.6803 102.037 62.7891 102.262 62.7625 102.48C62.7359 102.697 62.5759 102.889 62.3178 103.014C62.0598 103.138 61.7247 103.185 61.3864 103.143Z" fill="#F2F2F2"/>
<path d="M59.6499 49.657L26.0419 45.5416C25.7135 45.5014 25.4091 45.3764 25.1957 45.1942C24.9824 45.0119 24.8775 44.7874 24.9041 44.5699C24.9307 44.3524 25.0867 44.1597 25.3378 44.0344C25.5888 43.909 25.9143 43.8612 26.2427 43.9014L59.8507 48.0168C60.1791 48.057 60.4835 48.182 60.6969 48.3642C60.9102 48.5465 61.0151 48.771 60.9885 48.9885C60.9619 49.206 60.8059 49.3987 60.5548 49.524C60.3038 49.6494 59.9783 49.6972 59.6499 49.657Z" fill="#45C7D4"/>
<path d="M48.1731 61.57L24.4638 58.6667C24.1278 58.6255 23.8161 58.4997 23.5973 58.3168C23.3786 58.1339 23.2706 57.9089 23.2973 57.6914C23.3239 57.4739 23.4829 57.2817 23.7394 57.157C23.9958 57.0323 24.3286 56.9853 24.6646 57.0265L48.374 59.9298C48.71 59.9709 49.0217 60.0968 49.2404 60.2797C49.4592 60.4626 49.5671 60.6875 49.5405 60.905C49.5138 61.1225 49.3548 61.3148 49.0984 61.4395C48.842 61.5642 48.5092 61.6111 48.1731 61.57Z" fill="#45C7D4"/>
<path d="M33.4534 73.0858L22.8483 71.7872C22.5146 71.7463 22.2051 71.6207 21.988 71.438C21.7709 71.2554 21.6638 71.0305 21.6905 70.813C21.7171 70.5955 21.8752 70.4032 22.13 70.2783C22.3848 70.1534 22.7154 70.1061 23.0491 70.147L33.6543 71.4456C33.988 71.4865 34.2974 71.6121 34.5146 71.7948C34.7317 71.9775 34.8387 72.2023 34.8121 72.4198C34.7854 72.6373 34.6273 72.8297 34.3725 72.9546C34.1177 73.0795 33.7871 73.1267 33.4534 73.0858Z" fill="#45C7D4"/>
<path d="M58.107 89.4236L21.2247 84.9072C20.8955 84.8669 20.5904 84.7418 20.3764 84.5595C20.1625 84.3772 20.0573 84.1526 20.0839 83.9351C20.1105 83.7176 20.2669 83.525 20.5185 83.3997C20.7701 83.2744 21.0964 83.2267 21.4256 83.267L58.3079 87.7834C58.6371 87.8237 58.9422 87.9488 59.1562 88.1311C59.3701 88.3134 59.4753 88.538 59.4487 88.7555C59.4221 88.973 59.2658 89.1656 59.0141 89.2909C58.7625 89.4161 58.4362 89.4639 58.107 89.4236Z" fill="#45C7D4"/>
<path d="M48.301 101.541L19.6161 98.0286C19.2874 97.9883 18.9827 97.8633 18.7691 97.681C18.5555 97.4988 18.4505 97.2742 18.4771 97.0567C18.5037 96.8392 18.6599 96.6466 18.9111 96.5212C19.1624 96.3959 19.4883 96.3481 19.817 96.3884L48.5018 99.9009C48.8306 99.9412 49.1353 100.066 49.3489 100.248C49.5625 100.431 49.6675 100.655 49.6409 100.873C49.6143 101.09 49.4581 101.283 49.2069 101.408C48.9556 101.534 48.6297 101.581 48.301 101.541Z" fill="#45C7D4"/>
<path d="M85.6922 51.1813L84.052 50.9805L83.8512 52.6207L85.4914 52.8215L85.6922 51.1813Z" fill="#45C7D4"/>
<path d="M86.9305 54.6626C86.6061 54.6229 86.3008 54.4879 86.0531 54.2746C85.8055 54.0614 85.6266 53.7795 85.5392 53.4646C85.4517 53.1497 85.4596 52.8159 85.5619 52.5055C85.6641 52.1951 85.8561 51.9219 86.1136 51.7206C86.3711 51.5193 86.6825 51.3989 87.0084 51.3746C87.3343 51.3503 87.6601 51.4231 87.9446 51.584C88.2291 51.7448 88.4595 51.9864 88.6067 52.2782C88.7539 52.57 88.8113 52.8989 88.7716 53.2233C88.7178 53.6581 88.4938 54.0538 88.1487 54.3236C87.8035 54.5935 87.3654 54.7154 86.9305 54.6626ZM87.282 51.7923C87.0387 51.7625 86.792 51.8055 86.5732 51.9159C86.3543 52.0263 86.1731 52.1991 86.0525 52.4125C85.9319 52.6259 85.8772 52.8703 85.8955 53.1147C85.9137 53.3591 86.004 53.5927 86.155 53.7858C86.306 53.9789 86.5108 54.1229 86.7436 54.1996C86.9764 54.2763 87.2268 54.2822 87.463 54.2166C87.6991 54.151 87.9106 54.0169 88.0705 53.8311C88.2305 53.6454 88.3317 53.4164 88.3615 53.1731C88.4011 52.8469 88.3097 52.5183 88.1073 52.2595C87.9049 52.0006 87.6081 51.8326 87.282 51.7923Z" fill="#45C7D4"/>
<path d="M84.0854 64.3029L82.4452 64.1021L82.2443 65.7423L83.8845 65.9431L84.0854 64.3029Z" fill="#45C7D4"/>
<path d="M85.3239 67.784C84.9995 67.7443 84.6942 67.6092 84.4466 67.396C84.1989 67.1827 84.02 66.9008 83.9326 66.5859C83.8452 66.271 83.8531 65.9372 83.9553 65.6268C84.0575 65.3164 84.2496 65.0433 84.507 64.842C84.7645 64.6407 85.0759 64.5202 85.4018 64.4959C85.7277 64.4716 86.0535 64.5445 86.338 64.7053C86.6226 64.8661 86.853 65.1077 87.0002 65.3995C87.1474 65.6913 87.2047 66.0202 87.165 66.3446C87.1113 66.7794 86.8872 67.1751 86.5421 67.445C86.1969 67.7148 85.7589 67.8367 85.3239 67.784ZM85.6754 64.9136C85.4321 64.8838 85.1855 64.9269 84.9666 65.0373C84.7478 65.1477 84.5666 65.3205 84.4459 65.5339C84.3253 65.7472 84.2706 65.9916 84.2889 66.236C84.3071 66.4805 84.3975 66.714 84.5484 66.9071C84.6994 67.1002 84.9043 67.2442 85.1371 67.3209C85.3699 67.3976 85.6202 67.4035 85.8564 67.3379C86.0926 67.2724 86.304 67.1382 86.4639 66.9525C86.6239 66.7667 86.7252 66.5377 86.7549 66.2944C86.7945 65.9682 86.7031 65.6397 86.5007 65.3808C86.2983 65.1219 86.0015 64.9539 85.6754 64.9136Z" fill="#45C7D4"/>
<path d="M82.4785 77.4245L80.8383 77.2236L80.6374 78.8638L82.2776 79.0647L82.4785 77.4245Z" fill="#45C7D4"/>
<path d="M83.7171 80.9058C83.3927 80.8661 83.0874 80.7311 82.8397 80.5178C82.5921 80.3046 82.4132 80.0226 82.3258 79.7077C82.2383 79.3928 82.2462 79.059 82.3485 78.7486C82.4507 78.4382 82.6427 78.1651 82.9002 77.9638C83.1577 77.7625 83.4691 77.6421 83.795 77.6177C84.1209 77.5934 84.4467 77.6663 84.7312 77.8271C85.0157 77.988 85.2462 78.2296 85.3934 78.5214C85.5406 78.8132 85.5979 79.1421 85.5582 79.4665C85.5044 79.9013 85.2804 80.297 84.9353 80.5668C84.5901 80.8366 84.1521 80.9586 83.7171 80.9058ZM84.0686 78.0355C83.8253 78.0057 83.5787 78.0487 83.3598 78.1591C83.141 78.2695 82.9598 78.4423 82.8391 78.6557C82.7185 78.8691 82.6638 79.1134 82.6821 79.3579C82.7003 79.6023 82.7907 79.8358 82.9416 80.0289C83.0926 80.2221 83.2974 80.366 83.5303 80.4427C83.7631 80.5194 84.0134 80.5253 84.2496 80.4598C84.4858 80.3942 84.6972 80.26 84.8571 80.0743C85.0171 79.8886 85.1183 79.6595 85.1481 79.4162C85.1877 79.0901 85.0963 78.7615 84.8939 78.5026C84.6915 78.2438 84.3947 78.0758 84.0686 78.0355Z" fill="#45C7D4"/>
<path d="M80.8716 90.5458L79.2314 90.345L79.0306 91.9852L80.6708 92.186L80.8716 90.5458Z" fill="#45C7D4"/>
<path d="M82.1103 94.0271C81.7859 93.9874 81.4806 93.8524 81.2329 93.6391C80.9853 93.4259 80.8064 93.144 80.719 92.8291C80.6315 92.5142 80.6394 92.1804 80.7417 91.87C80.8439 91.5595 81.0359 91.2864 81.2934 91.0851C81.5509 90.8838 81.8623 90.7634 82.1882 90.7391C82.5141 90.7148 82.8399 90.7876 83.1244 90.9485C83.4089 91.1093 83.6393 91.3509 83.7865 91.6427C83.9337 91.9345 83.9911 92.2634 83.9514 92.5878C83.8976 93.0226 83.6736 93.4183 83.3285 93.6881C82.9833 93.958 82.5452 94.0799 82.1103 94.0271ZM82.4618 91.1568C82.2185 91.127 81.9718 91.17 81.753 91.2804C81.5341 91.3908 81.3529 91.5636 81.2323 91.777C81.1117 91.9904 81.057 92.2348 81.0753 92.4792C81.0935 92.7236 81.1838 92.9572 81.3348 93.1503C81.4858 93.3434 81.6906 93.4874 81.9234 93.5641C82.1563 93.6408 82.4066 93.6467 82.6428 93.5811C82.879 93.5155 83.0904 93.3814 83.2503 93.1956C83.4103 93.0099 83.5115 92.7809 83.5413 92.5376C83.5809 92.2114 83.4895 91.8828 83.2871 91.624C83.0847 91.3651 82.7879 91.1971 82.4618 91.1568Z" fill="#45C7D4"/>
<path d="M79.2646 103.668L77.6244 103.467L77.4235 105.107L79.0637 105.308L79.2646 103.668Z" fill="#45C7D4"/>
<path d="M80.7044 105.509C80.38 105.469 80.0687 105.382 79.81 105.259C79.5514 105.136 79.3568 104.982 79.251 104.817C79.1452 104.652 79.1329 104.483 79.2157 104.332C79.2985 104.18 79.4726 104.053 79.716 103.967C79.9594 103.88 80.2613 103.838 80.5833 103.845C80.9053 103.852 81.2332 103.909 81.5253 104.008C81.8174 104.107 82.0607 104.243 82.2244 104.4C82.3881 104.557 82.4649 104.727 82.445 104.89C82.4179 105.107 82.2194 105.294 81.8931 105.41C81.5667 105.526 81.1392 105.562 80.7044 105.509ZM80.8801 104.074C80.6368 104.044 80.3946 104.051 80.184 104.094C79.9734 104.136 79.804 104.213 79.6971 104.314C79.5902 104.415 79.5507 104.536 79.5836 104.661C79.6164 104.786 79.7202 104.91 79.8817 105.017C80.0432 105.124 80.2552 105.21 80.4909 105.263C80.7266 105.315 80.9755 105.334 81.206 105.315C81.4365 105.296 81.6382 105.24 81.7858 105.156C81.9333 105.071 82.02 104.961 82.0349 104.839C82.0546 104.676 81.944 104.504 81.7275 104.36C81.511 104.217 81.2062 104.114 80.8801 104.074Z" fill="#45C7D4"/>
<path d="M87.9515 53.1229C88.4045 53.1784 88.8166 52.8562 88.8721 52.4033C88.9275 51.9503 88.6053 51.5382 88.1524 51.4827C87.6994 51.4273 87.2873 51.7495 87.2319 52.2024C87.1764 52.6554 87.4986 53.0675 87.9515 53.1229Z" fill="#45C7D4"/>
<path d="M83.1308 92.4877C83.5838 92.5432 83.9959 92.2209 84.0514 91.768C84.1068 91.3151 83.7846 90.903 83.3317 90.8475C82.8788 90.792 82.4666 91.1142 82.4112 91.5672C82.3557 92.0201 82.6779 92.4322 83.1308 92.4877Z" fill="#45C7D4"/>
<path d="M81.5245 105.609C81.9775 105.664 82.3896 105.342 82.445 104.889C82.5005 104.436 82.1783 104.024 81.7254 103.969C81.2724 103.913 80.8603 104.236 80.8048 104.689C80.7494 105.141 81.0716 105.554 81.5245 105.609Z" fill="#45C7D4"/>
<path d="M58.3945 36.1852C58.8474 36.2407 59.2596 35.9185 59.315 35.4655C59.3705 35.0126 59.0483 34.6005 58.5954 34.545C58.1424 34.4895 57.7303 34.8118 57.6748 35.2647C57.6194 35.7176 57.9416 36.1297 58.3945 36.1852Z" fill="#3D3E5A"/>
<path d="M58.5048 35.2851C58.9577 35.3406 60.2894 27.5092 61.4791 17.7932C62.6689 8.07721 63.2662 0.155887 62.8133 0.100425C62.3603 0.0449616 61.0287 7.87636 59.8389 17.5923C58.6492 27.3083 58.0518 35.2296 58.5048 35.2851Z" fill="#3F3D56"/>
</svg>
